<?xml version="1.0" encoding="utf-8"?>
<!-- Generator: Adobe Illustrator 24.3.0, SVG Export Plug-In . SVG Version: 6.00 Build 0)  -->
<svg version="1.1" id="Layer_1" xmlns="http://www.w3.org/2000/svg" xmlns:xlink="http://www.w3.org/1999/xlink" x="0px" y="0px"
	 viewBox="0 0 23.4 21.7" style="enable-background:new 0 0 23.4 21.7;" xml:space="preserve">
<style type="text/css">
	.st0{clip-path:url(#SVGID_2_);fill:url(#SVGID_3_);}
	.st1{clip-path:url(#SVGID_5_);fill:url(#SVGID_6_);}
	.st2{clip-path:url(#SVGID_8_);fill:url(#SVGID_9_);}
	.st3{clip-path:url(#SVGID_11_);fill:url(#SVGID_12_);}
</style>
<g>
	<defs>
		<path id="SVGID_1_" d="M1.2,11c0,4.5,2.9,8.3,7,9.7c-3.4-1.3-5.8-4.6-5.8-8.4c0-5,4-9,9-9c5,0,9,4,9,9c0,3.9-2.4,7.1-5.8,8.4
			c4-1.3,7-5.2,7-9.7c0-5.6-4.6-10.2-10.2-10.2C5.7,0.9,1.2,5.4,1.2,11"/>
	</defs>
	<clipPath id="SVGID_2_">
		<use xlink:href="#SVGID_1_"  style="overflow:visible;"/>
	</clipPath>
	
		<linearGradient id="SVGID_3_" gradientUnits="userSpaceOnUse" x1="-396.0006" y1="309.0385" x2="-395.8712" y2="309.0385" gradientTransform="matrix(378.922 -123.1016 -123.1016 -378.922 188083.1094 68371.9922)">
		<stop  offset="0" style="stop-color:#886932"/>
		<stop  offset="6.228660e-02" style="stop-color:#967A41"/>
		<stop  offset="0.524" style="stop-color:#F9F2AE"/>
		<stop  offset="0.7022" style="stop-color:#E5CF84"/>
		<stop  offset="1" style="stop-color:#C08D36"/>
	</linearGradient>
	<polygon class="st0" points="-4.7,2.8 19.6,-5.1 27.3,18.8 3.1,26.7 	"/>
</g>
<g>
	<defs>
		<path id="SVGID_4_" d="M2.7,12.3c0,4.7,3.8,8.6,8.6,8.6c4.7,0,8.6-3.8,8.6-8.6c0-2.3-0.9-4.4-2.4-6c1,1.3,1.7,3,1.7,4.8
			c0,4.3-3.5,7.8-7.8,7.8c-4.3,0-7.8-3.5-7.8-7.8c0-1.8,0.6-3.5,1.7-4.8C3.7,7.8,2.7,9.9,2.7,12.3"/>
	</defs>
	<clipPath id="SVGID_5_">
		<use xlink:href="#SVGID_4_"  style="overflow:visible;"/>
	</clipPath>
	
		<linearGradient id="SVGID_6_" gradientUnits="userSpaceOnUse" x1="-396.3708" y1="311.3376" x2="-396.2415" y2="311.3376" gradientTransform="matrix(30.9354 106.5553 106.5553 -30.9354 -20901.3945 51880.5508)">
		<stop  offset="0" style="stop-color:#886932"/>
		<stop  offset="6.228660e-02" style="stop-color:#967A41"/>
		<stop  offset="0.524" style="stop-color:#F9F2AE"/>
		<stop  offset="0.7022" style="stop-color:#E5CF84"/>
		<stop  offset="1" style="stop-color:#C08D36"/>
	</linearGradient>
	<polygon class="st1" points="18.6,1.7 23.8,19.7 4.1,25.4 -1.1,7.4 	"/>
</g>
<g>
	<defs>
		<path id="SVGID_7_" d="M7.7,6.2c-1.7,0.5-3.2,2.3-3.4,4.5c-0.1,2.2,1.2,4.1,2.9,4.8c2.6,1.1,3.9-1.2,2.4-3.1
			c-0.5-0.7-0.9-1.2-0.2-1.1c2,1.2,1.5,4.1,1.3,5.6c0,0.2,0.2,0.2,0.2,0c0.3-1.7,1-4.2-1.2-6.3c0-0.2-0.1-0.4-0.3-0.6
			c0.2-0.3,0.5-0.6,0.9-1C11.7,7.6,10.8,6,8.9,6C8.5,6,8.1,6,7.7,6.2"/>
	</defs>
	<clipPath id="SVGID_8_">
		<use xlink:href="#SVGID_7_"  style="overflow:visible;"/>
	</clipPath>
	
		<linearGradient id="SVGID_9_" gradientUnits="userSpaceOnUse" x1="-394.7161" y1="312.3636" x2="-394.5867" y2="312.3636" gradientTransform="matrix(36.5458 56.7421 56.7421 -36.5458 -3290.6616 33824.625)">
		<stop  offset="0" style="stop-color:#886932"/>
		<stop  offset="6.228660e-02" style="stop-color:#967A41"/>
		<stop  offset="0.524" style="stop-color:#F9F2AE"/>
		<stop  offset="0.7022" style="stop-color:#E5CF84"/>
		<stop  offset="1" style="stop-color:#C08D36"/>
	</linearGradient>
	<polygon class="st2" points="9.6,2.5 17,13.9 6.4,20.7 -0.9,9.3 	"/>
</g>
<g>
	<defs>
		<path id="SVGID_10_" d="M12.4,9.1c0.4,0.4,0.7,0.7,0.9,1c-0.1,0.2-0.2,0.4-0.3,0.6c-2.3,2.2-1.5,4.6-1.2,6.3c0,0.2,0.2,0.2,0.2,0
			c-0.2-1.5-0.7-4.4,1.3-5.6c0.7-0.1,0.3,0.4-0.2,1.1c-1.5,1.9-0.2,4.2,2.4,3.1c1.7-0.7,3-2.6,2.9-4.8c-0.1-2.2-1.6-4-3.4-4.5
			C14.5,6,14.1,6,13.8,6C11.8,6,11,7.6,12.4,9.1"/>
	</defs>
	<clipPath id="SVGID_11_">
		<use xlink:href="#SVGID_10_"  style="overflow:visible;"/>
	</clipPath>
	
		<linearGradient id="SVGID_12_" gradientUnits="userSpaceOnUse" x1="-397.4164" y1="307.7003" x2="-397.2871" y2="307.7003" gradientTransform="matrix(-60.3251 -99.1923 -99.1923 60.3251 6568.168 -57960.8945)">
		<stop  offset="0" style="stop-color:#886932"/>
		<stop  offset="6.228660e-02" style="stop-color:#967A41"/>
		<stop  offset="0.524" style="stop-color:#F9F2AE"/>
		<stop  offset="0.7022" style="stop-color:#E5CF84"/>
		<stop  offset="1" style="stop-color:#C08D36"/>
	</linearGradient>
	<polygon class="st3" points="12.9,20.6 5.8,9 16.4,2.6 23.5,14.2 	"/>
</g>
</svg>
