<?xml version="1.0" encoding="utf-8"?>
<!-- Generator: Adobe Illustrator 24.3.0, SVG Export Plug-In . SVG Version: 6.00 Build 0)  -->
<svg version="1.1" id="Layer_1" xmlns="http://www.w3.org/2000/svg" xmlns:xlink="http://www.w3.org/1999/xlink" x="0px" y="0px"
	 viewBox="0 0 19.5 21.7" style="enable-background:new 0 0 19.5 21.7;" xml:space="preserve">
<style type="text/css">
	.st0{clip-path:url(#SVGID_2_);fill:url(#SVGID_3_);}
	.st1{clip-path:url(#SVGID_5_);fill:url(#SVGID_6_);}
	.st2{clip-path:url(#SVGID_8_);fill:url(#SVGID_9_);}
	.st3{clip-path:url(#SVGID_11_);fill:url(#SVGID_12_);}
</style>
<g>
	<g>
		<defs>
			<path id="SVGID_1_" d="M2,11c0,3.6,2.3,6.6,5.6,7.7C4.9,17.6,3,15,3,12c0-4,3.2-7.1,7.1-7.1S17.3,8,17.3,12
				c0,3.1-1.9,5.6-4.6,6.7c3.2-1,5.6-4.1,5.6-7.7c0-4.4-3.7-8.1-8.1-8.1C5.6,3,2,6.5,2,11"/>
		</defs>
		<clipPath id="SVGID_2_">
			<use xlink:href="#SVGID_1_"  style="overflow:visible;"/>
		</clipPath>
		
			<linearGradient id="SVGID_3_" gradientUnits="userSpaceOnUse" x1="-792.2643" y1="1.2267" x2="-792.1616" y2="1.2267" gradientTransform="matrix(378.922 -123.1016 123.1016 378.922 300045.8125 -97976.6641)">
			<stop  offset="0" style="stop-color:#886932"/>
			<stop  offset="6.228660e-02" style="stop-color:#967A41"/>
			<stop  offset="0.524" style="stop-color:#F9F2AE"/>
			<stop  offset="0.7022" style="stop-color:#E5CF84"/>
			<stop  offset="1" style="stop-color:#C08D36"/>
		</linearGradient>
		<polygon class="st0" points="-2.7,4.5 16.6,-1.8 22.7,17.2 3.5,23.4 		"/>
	</g>
</g>
<g>
	<g>
		<defs>
			<path id="SVGID_4_" d="M3.2,12c0,3.7,3,6.8,6.8,6.8c3.7,0,6.8-3,6.8-6.8c0-1.8-0.7-3.5-1.9-4.8c0.8,1,1.3,2.4,1.3,3.8
				c0,3.4-2.8,6.2-6.2,6.2S3.9,14.5,3.9,11c0-1.4,0.5-2.8,1.3-3.8C4,8.4,3.2,10.1,3.2,12"/>
		</defs>
		<clipPath id="SVGID_5_">
			<use xlink:href="#SVGID_4_"  style="overflow:visible;"/>
		</clipPath>
		
			<linearGradient id="SVGID_6_" gradientUnits="userSpaceOnUse" x1="-789.9062" y1="-4.7701" x2="-789.8036" y2="-4.7701" gradientTransform="matrix(30.9354 106.5553 -106.5553 30.9354 23937.9102 84329.4375)">
			<stop  offset="0" style="stop-color:#886932"/>
			<stop  offset="6.228660e-02" style="stop-color:#967A41"/>
			<stop  offset="0.524" style="stop-color:#F9F2AE"/>
			<stop  offset="0.7022" style="stop-color:#E5CF84"/>
			<stop  offset="1" style="stop-color:#C08D36"/>
		</linearGradient>
		<polygon class="st1" points="15.8,3.6 20,17.9 4.3,22.4 0.2,8.1 		"/>
	</g>
</g>
<g>
	<g>
		<defs>
			<path id="SVGID_7_" d="M7.2,7.2C5.8,7.6,4.6,9,4.5,10.7c-0.1,1.7,1,3.3,2.3,3.8c2.1,0.9,3.1-1,1.9-2.5c-0.4-0.6-0.7-1-0.2-0.9
				c1.6,1,1.2,3.3,1,4.4c0,0.2,0.2,0.2,0.2,0c0.2-1.3,0.8-3.3-1-5c0-0.2-0.1-0.3-0.2-0.5c0.2-0.2,0.4-0.5,0.7-0.8
				C10.4,8.3,9.6,7,8.1,7C7.8,7,7.5,7,7.2,7.2"/>
		</defs>
		<clipPath id="SVGID_8_">
			<use xlink:href="#SVGID_7_"  style="overflow:visible;"/>
		</clipPath>
		
			<linearGradient id="SVGID_9_" gradientUnits="userSpaceOnUse" x1="-784.9767" y1="-5.7328" x2="-784.874" y2="-5.7328" gradientTransform="matrix(36.5458 56.7421 -56.7421 36.5458 28369.9668 44762.5156)">
			<stop  offset="0" style="stop-color:#886932"/>
			<stop  offset="6.228660e-02" style="stop-color:#967A41"/>
			<stop  offset="0.524" style="stop-color:#F9F2AE"/>
			<stop  offset="0.7022" style="stop-color:#E5CF84"/>
			<stop  offset="1" style="stop-color:#C08D36"/>
		</linearGradient>
		<polygon class="st2" points="8.7,4.2 14.6,13.3 6.1,18.7 0.4,9.6 		"/>
	</g>
</g>
<g>
	<g>
		<defs>
			<path id="SVGID_10_" d="M10.9,9.5c0.3,0.3,0.6,0.6,0.7,0.8c-0.1,0.2-0.2,0.3-0.2,0.5c-1.8,1.7-1.2,3.7-1,5c0,0.2,0.2,0.2,0.2,0
				c-0.2-1.2-0.6-3.5,1-4.4c0.6-0.1,0.2,0.3-0.2,0.9c-1.2,1.5-0.2,3.3,1.9,2.5c1.3-0.6,2.4-2.1,2.3-3.8c-0.1-1.7-1.3-3.2-2.7-3.6
				C12.6,7,12.3,7,12,7C10.4,7,9.8,8.3,10.9,9.5"/>
		</defs>
		<clipPath id="SVGID_11_">
			<use xlink:href="#SVGID_10_"  style="overflow:visible;"/>
		</clipPath>
		
			<linearGradient id="SVGID_12_" gradientUnits="userSpaceOnUse" x1="-798.267" y1="3.2032" x2="-798.1644" y2="3.2032" gradientTransform="matrix(-60.3251 -99.1923 99.1923 -60.3251 -48455.6523 -78969.1562)">
			<stop  offset="0" style="stop-color:#886932"/>
			<stop  offset="6.228660e-02" style="stop-color:#967A41"/>
			<stop  offset="0.524" style="stop-color:#F9F2AE"/>
			<stop  offset="0.7022" style="stop-color:#E5CF84"/>
			<stop  offset="1" style="stop-color:#C08D36"/>
		</linearGradient>
		<polygon class="st3" points="11.3,18.6 5.7,9.4 14.1,4.3 19.7,13.5 		"/>
	</g>
</g>
</svg>
